<svg xmlns="http://www.w3.org/2000/svg" width="14" height="14" viewBox="0 0 14 14">
  <g id="Group_20361" data-name="Group 20361" transform="translate(-1335 122)">
    <circle id="Ellipse_5438" data-name="Ellipse 5438" cx="1" cy="1" r="1" transform="translate(1335 -122)" fill="#fff"/>
    <circle id="Ellipse_5447" data-name="Ellipse 5447" cx="1" cy="1" r="1" transform="translate(1335 -114)" fill="#fff"/>
    <circle id="Ellipse_5455" data-name="Ellipse 5455" cx="1" cy="1" r="1" transform="translate(1335 -118)" fill="#fff"/>
    <circle id="Ellipse_5463" data-name="Ellipse 5463" cx="1" cy="1" r="1" transform="translate(1335 -110)" fill="#fff"/>
    <circle id="Ellipse_5630" data-name="Ellipse 5630" cx="1" cy="1" r="1" transform="translate(1347 -122)" fill="#fff"/>
    <circle id="Ellipse_5646" data-name="Ellipse 5646" cx="1" cy="1" r="1" transform="translate(1347 -114)" fill="#fff"/>
    <circle id="Ellipse_5662" data-name="Ellipse 5662" cx="1" cy="1" r="1" transform="translate(1347 -118)" fill="#fff"/>
    <circle id="Ellipse_5678" data-name="Ellipse 5678" cx="1" cy="1" r="1" transform="translate(1347 -110)" fill="#fff"/>
    <circle id="Ellipse_5487" data-name="Ellipse 5487" cx="1" cy="1" r="1" transform="translate(1339 -122)" fill="#fff"/>
    <circle id="Ellipse_5500" data-name="Ellipse 5500" cx="1" cy="1" r="1" transform="translate(1339 -114)" fill="#fff"/>
    <circle id="Ellipse_5512" data-name="Ellipse 5512" cx="1" cy="1" r="1" transform="translate(1339 -118)" fill="#fff"/>
    <circle id="Ellipse_5524" data-name="Ellipse 5524" cx="1" cy="1" r="1" transform="translate(1339 -110)" fill="#fff"/>
    <circle id="Ellipse_5536" data-name="Ellipse 5536" cx="1" cy="1" r="1" transform="translate(1343 -122)" fill="#fff"/>
    <circle id="Ellipse_5549" data-name="Ellipse 5549" cx="1" cy="1" r="1" transform="translate(1343 -114)" fill="#fff"/>
    <circle id="Ellipse_5561" data-name="Ellipse 5561" cx="1" cy="1" r="1" transform="translate(1343 -118)" fill="#fff"/>
    <circle id="Ellipse_5573" data-name="Ellipse 5573" cx="1" cy="1" r="1" transform="translate(1343 -110)" fill="#fff"/>
  </g>
</svg>
