<svg id="_034-instagram" data-name="034-instagram" xmlns="http://www.w3.org/2000/svg" width="20" height="20" viewBox="0 0 20 20">
  <g id="Group_3668" data-name="Group 3668">
    <g id="Group_3667" data-name="Group 3667">
      <path id="Path_1927" data-name="Path 1927" d="M13.75,0H6.25A6.251,6.251,0,0,0,0,6.25v7.5A6.251,6.251,0,0,0,6.25,20h7.5A6.251,6.251,0,0,0,20,13.75V6.25A6.251,6.251,0,0,0,13.75,0Zm4.375,13.75a4.38,4.38,0,0,1-4.375,4.375H6.25A4.38,4.38,0,0,1,1.875,13.75V6.25A4.38,4.38,0,0,1,6.25,1.875h7.5A4.38,4.38,0,0,1,18.125,6.25Z" fill="#fff"/>
    </g>
  </g>
  <g id="Group_3670" data-name="Group 3670" transform="translate(5 5)">
    <g id="Group_3669" data-name="Group 3669">
      <path id="Path_1928" data-name="Path 1928" d="M133,128a5,5,0,1,0,5,5A5,5,0,0,0,133,128Zm0,8.125A3.125,3.125,0,1,1,136.125,133,3.129,3.129,0,0,1,133,136.125Z" transform="translate(-128 -128)" fill="#fff"/>
    </g>
  </g>
  <g id="Group_3672" data-name="Group 3672" transform="translate(14.709 3.959)">
    <g id="Group_3671" data-name="Group 3671">
      <circle id="Ellipse_1015" data-name="Ellipse 1015" cx="0.666" cy="0.666" r="0.666" fill="#fff"/>
    </g>
  </g>
</svg>
