<svg xmlns="http://www.w3.org/2000/svg" width="147.703" height="16" viewBox="0 0 147.703 16">
  <g id="Group_20268" data-name="Group 20268" transform="translate(-120 -46.288)" opacity="0.87">
    <path id="Path_15979" data-name="Path 15979" d="M9.126-36.622h-5.9v15.753h5.9c5.027,0,8.258-3.209,8.258-7.877C17.384-33.436,14.152-36.622,9.126-36.622ZM7.061-24.19v-9.156H8.879a4.214,4.214,0,0,1,4.6,4.6c0,2.895-1.705,4.555-4.6,4.555Zm24.325-7.316c0,1.234-.673,1.975-2.109,1.975H26.9v-3.9h2.379C30.713-33.436,31.387-32.673,31.387-31.506Zm-8.325-5.116v15.753H26.9v-5.947h.92l3.276,5.947h4.331l-3.635-6.238a4.585,4.585,0,0,0,3.5-4.555c0-2.738-1.93-4.959-5.79-4.959ZM41.216-20.869h3.837V-36.622H41.216Zm16.943-3.86-3.9-11.893H50.169l5.588,15.753h4.8l5.588-15.753H62.085ZM80.913-36.622H71.263v15.753h9.649v-3.074H75.1V-27.4h5.139v-2.962H75.1v-3.187h5.812ZM86.5-28.7a7.673,7.673,0,0,0,7.809,7.966,7.356,7.356,0,0,0,7.248-4.69H99.112a4.936,4.936,0,0,1-4.8,2.917c-3.276,0-5.722-2.379-5.722-6.194,0-3.837,2.446-6.216,5.722-6.216a4.921,4.921,0,0,1,4.8,2.94h2.446a7.362,7.362,0,0,0-7.248-4.735A7.711,7.711,0,0,0,86.5-28.7Zm21.61-7.809v15.641h7.518V-22.53h-5.475V-36.51Zm13.173,9.874c0,4.062,2.648,5.924,5.879,5.924s5.9-1.863,5.9-5.924V-36.51h-2.042v9.9c0,2.872-1.526,4.107-3.837,4.107s-3.86-1.234-3.86-4.107v-9.9h-2.042Zm27.6,1.369c0,1.705-1.212,2.715-3.231,2.715H142.04v-5.52h3.546C147.583-28.072,148.885-27,148.885-25.267Zm-.4-7.024c0,1.593-1.1,2.536-3.007,2.536H142.04v-5.072h3.389C147.426-34.827,148.481-33.84,148.481-32.291Zm2.446,7.226a3.9,3.9,0,0,0-3.1-3.86,3.66,3.66,0,0,0,2.738-3.613c0-2.177-1.661-3.972-4.959-3.972H140v15.641h5.834C149.064-20.869,150.927-22.709,150.927-25.065Z" transform="translate(116.776 83)" fill="#fff"/>
  </g>
</svg>
