<svg id="_002-youtube" data-name="002-youtube" xmlns="http://www.w3.org/2000/svg" width="29.091" height="20" viewBox="0 0 29.091 20">
  <g id="Group_3680" data-name="Group 3680">
    <path id="Path_1931" data-name="Path 1931" d="M27.855,81.927c-.789-1.4-1.645-1.662-3.389-1.76C22.724,80.049,18.344,80,14.549,80s-8.184.049-9.924.165c-1.74.1-2.6.356-3.395,1.762C.418,83.329,0,85.744,0,89.995v.015c0,4.233.418,6.665,1.231,8.053.8,1.4,1.653,1.658,3.393,1.776,1.742.1,6.124.162,9.925.162s8.175-.06,9.918-.16c1.744-.118,2.6-.373,3.389-1.776.82-1.387,1.235-3.82,1.235-8.053V90C29.091,85.744,28.676,83.329,27.855,81.927ZM10.909,95.455V84.545L20,90Z" transform="translate(0 -80)" fill="#fff"/>
  </g>
</svg>
